<svg width="1665" height="1665" viewBox="0 0 1665 1665" fill="none" xmlns="http://www.w3.org/2000/svg">
<rect width="1665" height="1665" fill="white"/>
<path fill-rule="evenodd" clip-rule="evenodd" d="M832.274 812.232L1016.18 706.051L832.643 388.532L646.62 703.97L832.274 812.232ZM857.431 375.465L1040.43 692.051L1226.02 584.905L857.431 375.465ZM838.822 332.686L1261.23 572.71C1264.42 573.26 1267.28 575.207 1268.92 578.035C1271.37 581.175 1271.86 585.41 1270.4 588.992V1078.01C1270.4 1081.96 1268.28 1085.6 1264.86 1087.56L840.471 1330.14C838.295 1332.46 835.151 1333.8 831.898 1333.66C828.645 1333.8 825.502 1332.46 823.326 1330.14L398.94 1087.56C395.513 1085.6 393.398 1081.96 393.398 1078.01V583.567C393.398 577.387 398.283 572.895 403.777 572.57L827.973 332.675C831.34 330.771 835.459 330.775 838.822 332.686ZM605.712 718.217L421.398 612.865V1030.76L605.712 718.217ZM449.132 1084L815.398 1293.35V1084H449.132ZM630.024 732.113L815.398 838.07V1056H439.017L630.024 732.113ZM807.169 376.608L622.432 689.865L440.672 583.872L807.169 376.608ZM1031.88 733.197L1218.47 1056H848.398V838.07L1031.88 733.197ZM1056.19 719.302L1242.4 612.865V1041.44L1056.19 719.302ZM1214.66 1084L848.398 1293.35V1084H1214.66Z" fill="black"/>
</svg>
