<svg width="230" height="62" viewBox="0 0 230 62" fill="none" xmlns="http://www.w3.org/2000/svg">
<path d="M30 30.7969L46.875 21.1875M30 30.7969V50.0156M30 30.7969L13.125 21.1875M46.875 21.1875L30 11.8125L13.125 21.1875M46.875 21.1875V40.1719L30 50.0156M30 50.0156C30 50.0156 19.7151 44.0161 13.125 40.1719C13.125 32.758 13.125 21.1875 13.125 21.1875" stroke="#04163A" stroke-width="2"/>
<path d="M13.125 34.4282V27.0715C13.125 23.4399 15.0939 20.0937 18.2686 18.33L25.1436 14.5105C28.1638 12.8326 31.8362 12.8326 34.8564 14.5105L41.6594 18.29C44.8723 20.0749 46.8471 23.4784 46.8022 27.1535L46.71 34.7148C46.667 38.2433 44.7674 41.488 41.7115 43.2526L35.0261 47.1132C31.9181 48.908 28.0867 48.8996 24.9867 47.0912L18.0863 43.066C15.0141 41.2739 13.125 37.9848 13.125 34.4282Z" stroke="#04163A"/>
<path d="M30 13L13.5 40H46.5L30 13Z" stroke="#04163A"/>
<path d="M67.9033 22.9951H71.2236L75.3984 35.9712L79.6953 22.9463H82.2954L86.6045 35.9712L90.7793 22.9951H94.002L87.8984 40.6221H85.2495L80.9526 28.0488L76.6558 40.6221H73.9946L67.9033 22.9951ZM95.8271 33.896C95.8271 32.6427 96.0998 31.4953 96.645 30.4536C97.1903 29.4038 97.9593 28.5697 98.9521 27.9512C99.945 27.3327 101.056 27.0234 102.285 27.0234C103.107 27.0234 103.863 27.1496 104.555 27.4019C105.247 27.646 105.837 27.9878 106.325 28.4272C106.822 28.8667 107.241 29.3875 107.583 29.9897C107.932 30.5838 108.189 31.2308 108.352 31.9307C108.522 32.6305 108.608 33.363 108.608 34.1279C108.608 34.4941 108.592 34.7749 108.559 34.9702H98.8545C99.0173 36.0282 99.4404 36.8542 100.124 37.4482C100.816 38.0342 101.658 38.3271 102.651 38.3271C103.367 38.3271 104.006 38.201 104.567 37.9487C105.129 37.6883 105.682 37.2896 106.228 36.7524L108.01 38.3271C106.643 39.9792 104.84 40.8052 102.602 40.8052C101.333 40.8052 100.185 40.5203 99.1597 39.9507C98.1343 39.381 97.3205 38.5672 96.7183 37.5093C96.1242 36.4513 95.8271 35.2469 95.8271 33.896ZM98.8301 32.9805H105.605C105.499 31.9551 105.153 31.1209 104.567 30.478C103.99 29.827 103.221 29.5015 102.26 29.5015C101.349 29.5015 100.584 29.8229 99.9653 30.4658C99.355 31.1006 98.9766 31.9388 98.8301 32.9805ZM112.244 36.6548C112.244 35.2388 112.732 34.1646 113.709 33.4321C114.694 32.6916 115.988 32.3213 117.591 32.3213C118.885 32.3213 120.101 32.5044 121.241 32.8706V32.6265C121.241 31.7069 120.96 31.007 120.398 30.5269C119.845 30.0386 119.043 29.7944 117.994 29.7944C116.806 29.7944 115.548 30.0711 114.222 30.6245L113.392 28.1953C114.205 27.8291 114.995 27.5565 115.76 27.3774C116.533 27.1903 117.42 27.0967 118.421 27.0967C120.341 27.0967 121.786 27.5809 122.754 28.5493C123.731 29.5096 124.219 30.8849 124.219 32.6753V40.5H121.216V38.8765C120.15 40.146 118.726 40.7808 116.944 40.7808C116.089 40.7808 115.312 40.6302 114.612 40.3291C113.912 40.0199 113.343 39.5479 112.903 38.9131C112.464 38.2783 112.244 37.5256 112.244 36.6548ZM115.247 36.5449C115.247 37.1471 115.487 37.6232 115.967 37.9731C116.447 38.3231 117.058 38.498 117.798 38.498C118.807 38.498 119.642 38.2417 120.301 37.729C120.96 37.2082 121.29 36.5409 121.29 35.7271V34.9702C120.411 34.6203 119.402 34.4453 118.262 34.4453C117.31 34.4453 116.569 34.6284 116.041 34.9946C115.512 35.3608 115.247 35.8776 115.247 36.5449ZM126.813 27.3042H130.06L133.612 36.9966L137.189 27.3042H140.363L134.967 40.5977H132.245L126.813 27.3042ZM142.831 33.896C142.831 32.6427 143.104 31.4953 143.649 30.4536C144.194 29.4038 144.963 28.5697 145.956 27.9512C146.949 27.3327 148.06 27.0234 149.289 27.0234C150.111 27.0234 150.867 27.1496 151.559 27.4019C152.251 27.646 152.841 27.9878 153.329 28.4272C153.826 28.8667 154.245 29.3875 154.586 29.9897C154.936 30.5838 155.193 31.2308 155.355 31.9307C155.526 32.6305 155.612 33.363 155.612 34.1279C155.612 34.4941 155.596 34.7749 155.563 34.9702H145.858C146.021 36.0282 146.444 36.8542 147.128 37.4482C147.82 38.0342 148.662 38.3271 149.655 38.3271C150.371 38.3271 151.01 38.201 151.571 37.9487C152.133 37.6883 152.686 37.2896 153.231 36.7524L155.014 38.3271C153.646 39.9792 151.844 40.8052 149.606 40.8052C148.336 40.8052 147.189 40.5203 146.164 39.9507C145.138 39.381 144.324 38.5672 143.722 37.5093C143.128 36.4513 142.831 35.2469 142.831 33.896ZM145.834 32.9805H152.609C152.503 31.9551 152.157 31.1209 151.571 30.478C150.993 29.827 150.224 29.5015 149.264 29.5015C148.353 29.5015 147.588 29.8229 146.969 30.4658C146.359 31.1006 145.98 31.9388 145.834 32.9805Z" fill="#A14938"/>
<path d="M159.724 31.7476C159.724 30.535 159.948 29.3794 160.396 28.2808C160.851 27.174 161.47 26.2096 162.251 25.3877C163.032 24.5658 163.988 23.9147 165.12 23.4346C166.251 22.9463 167.459 22.7021 168.745 22.7021C170.21 22.7021 171.459 22.8975 172.493 23.2881C173.534 23.6706 174.527 24.2646 175.471 25.0703L173.518 27.4019C172.769 26.7671 172.025 26.2951 171.284 25.9858C170.552 25.6766 169.665 25.522 168.623 25.522C167.573 25.522 166.609 25.8027 165.73 26.3643C164.859 26.9258 164.176 27.6826 163.679 28.6348C163.191 29.5869 162.947 30.6245 162.947 31.7476C162.947 32.9438 163.191 34.014 163.679 34.958C164.167 35.902 164.863 36.6466 165.767 37.1919C166.678 37.729 167.72 37.9976 168.892 37.9976C170.544 37.9976 171.956 37.5581 173.127 36.6792V33.3955H168.647V30.7222H176.094V38.0708C173.97 39.8937 171.536 40.8052 168.794 40.8052C167.004 40.8052 165.413 40.4105 164.021 39.6211C162.638 38.8236 161.576 37.7412 160.835 36.374C160.094 34.9987 159.724 33.4565 159.724 31.7476ZM181.506 40.5V27.3042H184.521V30.2705C184.96 29.2288 185.571 28.4191 186.352 27.8413C187.076 27.3123 187.939 27.0479 188.94 27.0479C189.021 27.0479 189.107 27.0479 189.196 27.0479V30.2461H189.025C187.658 30.2461 186.564 30.6937 185.742 31.5889C184.928 32.4759 184.521 33.7699 184.521 35.4707V40.5H181.506ZM193.632 25.2778V22.397H196.879V25.2778H193.632ZM193.754 40.5V27.3042H196.781V40.5H193.754ZM201.303 33.8716C201.303 32.8136 201.474 31.8452 201.815 30.9663C202.157 30.0874 202.613 29.3672 203.183 28.8057C203.76 28.236 204.411 27.7965 205.136 27.4873C205.868 27.1781 206.633 27.0234 207.431 27.0234C209.221 27.0234 210.722 27.8006 211.935 29.355V22.2505H214.962V40.5H211.935V38.3027C210.763 39.9548 209.262 40.7808 207.431 40.7808C206.649 40.7808 205.893 40.6261 205.16 40.3169C204.436 39.9995 203.785 39.5601 203.207 38.9985C202.629 38.4289 202.165 37.7005 201.815 36.8135C201.474 35.9183 201.303 34.9377 201.303 33.8716ZM204.354 33.9204C204.354 35.1655 204.725 36.1828 205.465 36.9722C206.206 37.7534 207.105 38.144 208.163 38.144C209.213 38.144 210.112 37.7453 210.861 36.9478C211.61 36.1502 211.984 35.1248 211.984 33.8716C211.984 32.6346 211.61 31.6214 210.861 30.832C210.112 30.0426 209.213 29.6479 208.163 29.6479C207.089 29.6479 206.186 30.0386 205.453 30.8198C204.721 31.5929 204.354 32.6265 204.354 33.9204Z" fill="#04163A"/>
</svg>
